<!--?xml version="1.0" standalone="no"?--><svg version="1.0" xmlns="http://www.w3.org/2000/svg" width="300.000000pt" height="277.000000pt" viewBox="0 0 300.000000 277.000000" preserveAspectRatio="xMidYMid meet">
<metadata>
  <rdf:rdf xmlns:rdf="http://www.w3.org/1999/02/22-rdf-syntax-ns#" xmlns:rdfs="http://www.w3.org/2000/01/rdf-schema#" xmlns:dc="http://purl.org/dc/elements/1.1/">
    <rdf:description dc:title="book slant" dc:publisher="Hiox" dc:date="2015-05-05" dc:format="image/svg+xml" dc:language="en">
      <dc:creator>
        <rdf:bag>
          <rdf:li>svgimages.com</rdf:li>
        </rdf:bag>
      </dc:creator>
    </rdf:description>
  </rdf:rdf>
</metadata>
<g transform="translate(0.000000,277.000000) scale(0.100000,-0.100000)" fill="#333333" stroke="none">
<path d="M2680 2763 c-245 -26 -681 -69 -935 -93 -115 -11 -241 -24 -280 -30
-38 -6 -110 -11 -158 -13 l-89 -2 -96 -165 c-52 -91 -126 -217 -163 -280 -37
-63 -96 -164 -131 -224 -35 -59 -74 -127 -88 -151 -14 -24 -53 -92 -88 -151
-35 -60 -97 -165 -137 -234 -40 -69 -102 -174 -137 -234 -35 -59 -74 -128 -88
-151 -14 -24 -47 -81 -74 -127 -26 -45 -56 -96 -66 -113 -144 -246 -150 -259
-150 -295 0 -91 207 -309 331 -348 65 -20 245 -42 469 -57 333 -22 769 -53
820 -60 53 -6 470 -35 511 -35 23 0 29 6 39 38 6 20 16 46 21 57 5 11 27 72
50 135 43 119 55 151 152 410 13 36 45 121 70 190 25 69 58 157 72 195 15 39
44 120 66 180 22 61 44 119 49 130 13 26 98 259 112 305 5 19 14 40 18 45 4 6
15 35 24 65 10 30 21 64 26 75 16 35 61 154 70 183 5 15 23 63 40 107 32 83
60 164 60 178 0 5 -19 5 -43 2 -43 -7 -43 -7 -79 47 -54 79 -58 91 -69 183 -9
70 -8 98 5 155 9 38 16 74 16 79 0 11 -72 12 -150 4z m110 -268 c7 -69 12 -83
56 -147 27 -39 55 -73 62 -75 16 -7 15 -18 -3 -56 -8 -18 -23 -57 -34 -87 -10
-30 -29 -80 -41 -110 -12 -30 -31 -82 -42 -115 -12 -33 -24 -64 -28 -70 -4 -5
-13 -28 -19 -50 -7 -22 -16 -49 -21 -60 -5 -11 -20 -49 -34 -85 -13 -36 -41
-107 -60 -157 -20 -51 -36 -99 -36 -106 0 -7 -4 -17 -8 -22 -5 -6 -24 -50 -42
-100 -18 -49 -39 -103 -46 -120 -7 -16 -29 -73 -48 -125 -19 -52 -47 -126 -61
-165 -14 -38 -30 -79 -35 -90 -5 -11 -25 -63 -44 -115 -19 -52 -49 -131 -66
-175 -17 -44 -49 -127 -70 -185 -61 -165 -72 -190 -86 -190 -21 0 -105 61
-165 120 -49 47 -58 62 -64 103 -3 26 -3 61 0 77 6 27 11 30 44 30 38 0 38 0
66 72 52 138 117 303 141 361 13 32 24 63 24 68 0 6 8 29 19 52 10 23 31 74
45 112 15 39 43 108 61 155 19 47 50 128 70 180 20 52 51 133 70 180 18 47 54
137 78 200 122 310 157 401 157 407 0 3 6 19 14 36 8 18 31 75 51 127 20 52
42 109 50 125 7 17 17 43 20 58 11 41 17 27 25 -58z m-2225 -2019 c176 -9 446
-23 600 -31 154 -8 348 -17 430 -20 83 -3 169 -8 191 -11 l41 -5 6 -67 c3 -36
10 -68 16 -70 6 -2 11 -12 11 -22 0 -16 67 -81 144 -137 l30 -23 -45 0 c-25 0
-81 4 -125 10 -43 5 -200 17 -349 25 -148 9 -292 18 -320 21 -27 2 -192 13
-365 24 -496 30 -477 27 -560 89 -80 59 -126 105 -162 164 -21 34 -38 66 -38
71 0 5 39 6 88 3 48 -3 231 -12 407 -21z" id="node1" class="node"></path>
</g>
<g transform="translate(0.000000,277.000000) scale(0.100000,-0.100000)" fill="#FFFFFF" stroke="none">


<path d="M2765 2553 c-3 -15 -13 -41 -20 -58 -8 -16 -30 -73 -50 -125 -20 -52
-43 -109 -51 -127 -8 -17 -14 -33 -14 -36 0 -6 -35 -97 -157 -407 -24 -63 -60
-153 -78 -200 -19 -47 -50 -128 -70 -180 -20 -52 -51 -133 -70 -180 -18 -47
-46 -116 -61 -155 -14 -38 -35 -89 -45 -112 -11 -23 -19 -46 -19 -52 0 -5 -11
-36 -24 -68 -24 -58 -89 -223 -141 -361 -28 -72 -28 -72 -66 -72 -33 0 -38 -3
-44 -30 -3 -16 -3 -51 0 -77 6 -41 15 -56 64 -103 60 -59 144 -120 165 -120
14 0 25 25 86 190 21 58 53 141 70 185 17 44 47 123 66 175 19 52 39 104 44
115 5 11 21 52 35 90 14 39 42 113 61 165 19 52 41 109 48 125 7 17 28 71 46
120 18 50 37 94 42 100 4 5 8 15 8 22 0 7 16 55 36 106 19 50 47 121 60 157
14 36 29 74 34 85 5 11 14 38 21 60 6 22 15 45 19 50 4 6 16 37 28 70 11 33
30 85 42 115 12 30 31 80 41 110 11 30 26 69 34 87 18 38 19 49 3 56 -7 2 -35
36 -62 75 -44 64 -49 78 -56 147 -8 85 -14 99 -25 58z" id="node4" class="node"></path>

<path d="M70 494 c0 -5 17 -37 38 -71 36 -59 82 -105 162 -164 83 -62 64 -59
560 -89 173 -11 338 -22 365 -24 28 -3 172 -12 320 -21 149 -8 306 -20 349
-25 44 -6 100 -10 125 -10 l45 0 -30 23 c-77 56 -144 121 -144 137 0 10 -5 20
-11 22 -6 2 -13 34 -16 70 l-6 67 -41 5 c-22 3 -108 8 -191 11 -82 3 -276 12
-430 20 -154 8 -424 22 -600 31 -176 9 -359 18 -407 21 -49 3 -88 2 -88 -3z" id="node6" class="node"></path>

</g>
</svg>