<!--?xml version="1.0" standalone="no"?-->

<svg version="1.0" xmlns="http://www.w3.org/2000/svg" width="191.000000pt" height="300.000000pt" viewBox="0 0 191.000000 300.000000" preserveAspectRatio="xMidYMid meet">
<g transform="translate(0.000000,300.000000) scale(0.100000,-0.100000)" fill="#0B0C0C" stroke="none">
<path class="node" id="node1" d="M924 2954 c17 -65 17 -84 1 -144 -19 -75 -64 -167 -108 -225 -17 -22
-115 -125 -217 -230 -255 -261 -363 -398 -447 -567 -80 -161 -123 -326 -123
-474 0 -156 59 -344 145 -459 67 -91 176 -180 280 -230 136 -65 150 -66 84 -7
-180 163 -216 365 -103 569 34 61 128 173 145 173 5 0 9 -26 9 -58 0 -72 24
-120 76 -149 74 -43 160 -20 201 52 42 75 25 152 -60 263 -96 124 -124 220
-94 323 16 52 64 139 78 139 4 0 10 -20 13 -44 14 -88 85 -166 266 -287 258
-174 338 -256 411 -419 21 -48 24 -69 24 -175 0 -114 -2 -123 -32 -187 -35
-74 -132 -179 -196 -213 -97 -51 16 -24 121 29 197 100 357 264 429 438 70
171 71 389 2 558 -65 158 -182 296 -339 402 l-75 50 -6 -41 c-7 -50 -33 -88
-79 -112 -108 -58 -226 27 -237 173 -4 50 2 91 28 198 66 268 33 426 -128 616
-58 69 -79 80 -69 38z"></path>
<path class="node" id="node2" d="M555 321 c-6 -39 -7 -40 -53 -43 -40 -3 -49 -8 -69 -37 -30 -45 -31
-113 -2 -142 18 -18 28 -20 78 -14 31 4 57 8 58 9 2 2 27 153 37 224 6 39 5
42 -18 42 -20 0 -25 -6 -31 -39z m-31 -77 c17 -6 20 -48 7 -94 -5 -19 -13 -25
-36 -25 -27 0 -30 3 -33 38 -2 23 3 48 13 63 16 25 23 28 49 18z"></path>
<path class="node" id="node3" d="M1367 341 c-6 -25 0 -31 30 -31 18 0 23 5 23 25 0 20 -5 25 -24 25
-15 0 -26 -7 -29 -19z"></path>
<path class="node" id="node4" d="M69 335 c-35 -19 -63 -86 -63 -152 -1 -48 3 -58 27 -79 30 -26 69
-30 113 -14 25 10 53 36 54 51 1 18 -35 18 -55 -1 -51 -48 -100 -7 -89 74 12
83 65 118 109 70 26 -28 55 -27 55 1 0 9 -11 27 -25 40 -28 29 -84 33 -126 10z"></path>
<path class="node" id="node5" d="M1480 331 c-5 -11 -10 -26 -10 -34 0 -8 -7 -17 -15 -21 -17 -6 -21
-36 -4 -36 8 0 9 -21 4 -70 -7 -68 -6 -70 19 -81 17 -8 36 -9 58 -3 42 12 44
39 3 39 -32 0 -31 -3 -27 79 2 31 5 35 34 38 46 4 53 38 8 38 -31 0 -32 1 -26
35 6 31 4 35 -13 35 -11 0 -25 -9 -31 -19z"></path>
<path class="node" id="node6" d="M820 326 c0 -8 5 -16 12 -18 16 -6 -10 -178 -29 -185 -7 -3 -13 -11
-13 -19 0 -10 14 -14 50 -14 47 0 63 11 39 26 -19 11 7 194 27 194 8 0 14 7
14 15 0 11 -12 15 -50 15 -36 0 -50 -4 -50 -14z"></path>
<path class="node" id="node7" d="M294 282 c-39 -6 -67 -47 -72 -106 -4 -45 -1 -57 17 -75 23 -23 66
-27 105 -10 47 22 73 122 44 162 -15 19 -63 34 -94 29z m54 -80 c4 -44 -22
-84 -51 -80 -17 2 -23 11 -25 40 -4 52 13 80 46 76 22 -2 28 -9 30 -36z"></path>
<path class="node" id="node8" d="M1106 283 c-4 -4 -34 -6 -67 -5 -52 2 -62 -1 -85 -23 -20 -20 -25
-33 -21 -58 2 -17 0 -41 -6 -52 -6 -11 -14 -28 -19 -37 -17 -35 -9 -77 17 -94
36 -24 122 -15 147 16 40 49 20 77 -72 96 l-35 8 50 7 c53 8 72 26 82 71 3 15
11 29 19 32 15 6 19 32 5 40 -4 3 -11 2 -15 -1z m-56 -63 c0 -23 -24 -43 -47
-38 -23 4 -28 32 -9 51 20 19 56 11 56 -13z m-13 -147 c7 -18 -14 -33 -47 -33
-34 0 -52 18 -40 40 11 20 79 15 87 -7z"></path>
<path class="node" id="node9" d="M652 274 c-21 -9 -44 -64 -45 -111 -2 -36 3 -48 22 -64 33 -27 84
-24 118 5 26 23 27 25 9 32 -10 4 -27 2 -37 -4 -26 -17 -56 -15 -63 4 -10 27
3 34 64 34 56 0 60 2 66 26 11 43 -23 79 -77 81 -24 1 -50 -1 -57 -3z m81 -48
c8 -19 -1 -26 -33 -26 -32 0 -41 7 -33 26 7 18 59 18 66 0z"></path>
<path class="node" id="node10" d="M1145 265 c-8 -28 -25 -131 -25 -152 0 -20 5 -24 23 -21 19 3 24 12
32 63 12 74 19 85 52 85 l25 0 -7 -75 c-6 -70 -6 -75 13 -75 24 0 30 13 38 95
9 86 1 95 -83 93 -36 -2 -67 -7 -68 -13z"></path>
<path class="node" id="node11" d="M1333 264 c-3 -10 0 -20 9 -25 12 -7 13 -18 7 -56 -12 -74 -11 -83
16 -95 35 -16 54 2 37 34 -9 17 -10 37 -2 77 5 29 10 60 10 67 0 21 -69 18
-77 -2z"></path>
<path class="node" id="node12" d="M1623 265 c-28 -20 -47 -83 -39 -128 7 -35 36 -57 77 -57 30 0 79 28
79 45 0 17 -31 20 -47 4 -18 -18 -58 -7 -58 16 0 18 8 20 63 23 l62 3 0 34 c0
47 -29 75 -78 75 -21 0 -47 -7 -59 -15z m85 -47 c3 -15 -4 -18 -32 -18 -34 0
-47 15 -29 34 13 13 58 1 61 -16z"></path>
<path class="node" id="node13" d="M1801 266 c-4 -6 -11 -38 -15 -71 -4 -32 -9 -69 -12 -82 -5 -19 -2
-23 19 -23 23 0 26 5 32 48 10 84 17 97 53 100 24 2 32 8 32 22 0 16 -7 19
-50 18 -28 -1 -54 -6 -59 -12z"></path>
</g>
<g transform="translate(0.000000,300.000000) scale(0.100000,-0.100000)" fill="#A1A1A1" stroke="none">







</g>
</svg>