<?xml version="1.0" encoding="UTF-8" standalone="no"?>
<!-- Created with Inkscape (http://www.inkscape.org/) -->

<svg
   xmlns:dc="http://purl.org/dc/elements/1.1/"
   xmlns:cc="http://creativecommons.org/ns#"
   xmlns:rdf="http://www.w3.org/1999/02/22-rdf-syntax-ns#"
   xmlns:svg="http://www.w3.org/2000/svg"
   xmlns="http://www.w3.org/2000/svg"
   xmlns:sodipodi="http://sodipodi.sourceforge.net/DTD/sodipodi-0.dtd"
   xmlns:inkscape="http://www.inkscape.org/namespaces/inkscape"
   width="256"
   height="256"
   viewBox="0 0 256 256"
   id="svg2"
   version="1.1"
   inkscape:version="0.91 r13725"
   sodipodi:docname="logo.svg"
   inkscape:export-filename="/Users/PABLO/Documents/php/CodeIgniter3.x-Libraries/logo/logo.png"
   inkscape:export-xdpi="90"
   inkscape:export-ydpi="90">
  <defs
     id="defs4" />
  <sodipodi:namedview
     id="base"
     pagecolor="#ffffff"
     bordercolor="#666666"
     borderopacity="1.0"
     inkscape:pageopacity="0.0"
     inkscape:pageshadow="2"
     inkscape:zoom="3.5852524"
     inkscape:cx="89.92394"
     inkscape:cy="291.95986"
     inkscape:document-units="px"
     inkscape:current-layer="layer1"
     showgrid="false"
     units="px"
     inkscape:window-width="1440"
     inkscape:window-height="851"
     inkscape:window-x="0"
     inkscape:window-y="1"
     inkscape:window-maximized="1" />
  <metadata
     id="metadata7">
    <rdf:RDF>
      <cc:Work
         rdf:about="">
        <dc:format>image/svg+xml</dc:format>
        <dc:type
           rdf:resource="http://purl.org/dc/dcmitype/StillImage" />
        <dc:title />
      </cc:Work>
    </rdf:RDF>
  </metadata>
  <g
     inkscape:label="Camada 1"
     inkscape:groupmode="layer"
     id="layer1"
     transform="translate(0,-796.36216)">
    <g
       id="g3429"
       transform="matrix(0.85333333,0,0,0.85333333,5e-7,806.10077)">
      <g
         id="g3418"
         transform="matrix(0.1,0,0,-0.1,0,277)"
         style="fill:#333333;stroke:none">
        <path
           class="node"
           id="node1"
           d="m 2680,2763 c -245,-26 -681,-69 -935,-93 -115,-11 -241,-24 -280,-30 -38,-6 -110,-11 -158,-13 l -89,-2 -96,-165 c -52,-91 -126,-217 -163,-280 -37,-63 -96,-164 -131,-224 -35,-59 -74,-127 -88,-151 -14,-24 -53,-92 -88,-151 C 617,1594 555,1489 515,1420 475,1351 413,1246 378,1186 343,1127 304,1058 290,1035 276,1011 243,954 216,908 190,863 160,812 150,795 6,549 0,536 0,500 0,409 207,191 331,152 c 65,-20 245,-42 469,-57 333,-22 769,-53 820,-60 53,-6 470,-35 511,-35 23,0 29,6 39,38 6,20 16,46 21,57 5,11 27,72 50,135 43,119 55,151 152,410 13,36 45,121 70,190 25,69 58,157 72,195 15,39 44,120 66,180 22,61 44,119 49,130 13,26 98,259 112,305 5,19 14,40 18,45 4,6 15,35 24,65 10,30 21,64 26,75 16,35 61,154 70,183 5,15 23,63 40,107 32,83 60,164 60,178 0,5 -19,5 -43,2 -43,-7 -43,-7 -79,47 -54,79 -58,91 -69,183 -9,70 -8,98 5,155 9,38 16,74 16,79 0,11 -72,12 -150,4 z m 110,-268 c 7,-69 12,-83 56,-147 27,-39 55,-73 62,-75 16,-7 15,-18 -3,-56 -8,-18 -23,-57 -34,-87 -10,-30 -29,-80 -41,-110 -12,-30 -31,-82 -42,-115 -12,-33 -24,-64 -28,-70 -4,-5 -13,-28 -19,-50 -7,-22 -16,-49 -21,-60 -5,-11 -20,-49 -34,-85 -13,-36 -41,-107 -60,-157 -20,-51 -36,-99 -36,-106 0,-7 -4,-17 -8,-22 -5,-6 -24,-50 -42,-100 -18,-49 -39,-103 -46,-120 -7,-16 -29,-73 -48,-125 -19,-52 -47,-126 -61,-165 -14,-38 -30,-79 -35,-90 -5,-11 -25,-63 -44,-115 -19,-52 -49,-131 -66,-175 -17,-44 -49,-127 -70,-185 -61,-165 -72,-190 -86,-190 -21,0 -105,61 -165,120 -49,47 -58,62 -64,103 -3,26 -3,61 0,77 6,27 11,30 44,30 38,0 38,0 66,72 52,138 117,303 141,361 13,32 24,63 24,68 0,6 8,29 19,52 10,23 31,74 45,112 15,39 43,108 61,155 19,47 50,128 70,180 20,52 51,133 70,180 18,47 54,137 78,200 122,310 157,401 157,407 0,3 6,19 14,36 8,18 31,75 51,127 20,52 42,109 50,125 7,17 17,43 20,58 11,41 17,27 25,-58 z M 565,476 c 176,-9 446,-23 600,-31 154,-8 348,-17 430,-20 83,-3 169,-8 191,-11 l 41,-5 6,-67 c 3,-36 10,-68 16,-70 6,-2 11,-12 11,-22 0,-16 67,-81 144,-137 l 30,-23 -45,0 c -25,0 -81,4 -125,10 -43,5 -200,17 -349,25 -148,9 -292,18 -320,21 -27,2 -192,13 -365,24 -496,30 -477,27 -560,89 -80,59 -126,105 -162,164 -21,34 -38,66 -38,71 0,5 39,6 88,3 48,-3 231,-12 407,-21 z"
           inkscape:connector-curvature="0" />
      </g>
      <g
         id="g3421"
         transform="matrix(0.1,0,0,-0.1,0,277)"
         style="fill:#ffffff;stroke:none">
        <path
           class="node"
           id="node4"
           d="m 2765,2553 c -3,-15 -13,-41 -20,-58 -8,-16 -30,-73 -50,-125 -20,-52 -43,-109 -51,-127 -8,-17 -14,-33 -14,-36 0,-6 -35,-97 -157,-407 -24,-63 -60,-153 -78,-200 -19,-47 -50,-128 -70,-180 -20,-52 -51,-133 -70,-180 -18,-47 -46,-116 -61,-155 -14,-38 -35,-89 -45,-112 -11,-23 -19,-46 -19,-52 0,-5 -11,-36 -24,-68 -24,-58 -89,-223 -141,-361 -28,-72 -28,-72 -66,-72 -33,0 -38,-3 -44,-30 -3,-16 -3,-51 0,-77 6,-41 15,-56 64,-103 60,-59 144,-120 165,-120 14,0 25,25 86,190 21,58 53,141 70,185 17,44 47,123 66,175 19,52 39,104 44,115 5,11 21,52 35,90 14,39 42,113 61,165 19,52 41,109 48,125 7,17 28,71 46,120 18,50 37,94 42,100 4,5 8,15 8,22 0,7 16,55 36,106 19,50 47,121 60,157 14,36 29,74 34,85 5,11 14,38 21,60 6,22 15,45 19,50 4,6 16,37 28,70 11,33 30,85 42,115 12,30 31,80 41,110 11,30 26,69 34,87 18,38 19,49 3,56 -7,2 -35,36 -62,75 -44,64 -49,78 -56,147 -8,85 -14,99 -25,58 z"
           inkscape:connector-curvature="0" />
        <path
           class="node"
           id="node6"
           d="m 70,494 c 0,-5 17,-37 38,-71 36,-59 82,-105 162,-164 83,-62 64,-59 560,-89 173,-11 338,-22 365,-24 28,-3 172,-12 320,-21 149,-8 306,-20 349,-25 44,-6 100,-10 125,-10 l 45,0 -30,23 c -77,56 -144,121 -144,137 0,10 -5,20 -11,22 -6,2 -13,34 -16,70 l -6,67 -41,5 c -22,3 -108,8 -191,11 -82,3 -276,12 -430,20 -154,8 -424,22 -600,31 -176,9 -359,18 -407,21 -49,3 -88,2 -88,-3 z"
           inkscape:connector-curvature="0" />
      </g>
    </g>
    <g
       id="g3496"
       transform="matrix(0.99348167,0.11399197,-0.11399197,0.99348167,94.052155,-3.1841795)">
      <g
         id="g3478">
        <g
           id="g3461"
           transform="matrix(0.42977042,0,0,0.42977042,88.760921,827.17691)"
           style="fill:#ececec">
          <g
             id="g3438"
             transform="matrix(0.1,0,0,-0.1,0,300)"
             style="fill:#ececec;stroke:none">
            <path
               d="m 924,2954 c 17,-65 17,-84 1,-144 C 906,2735 861,2643 817,2585 800,2563 702,2460 600,2355 345,2094 237,1957 153,1788 73,1627 30,1462 30,1314 30,1158 89,970 175,855 242,764 351,675 455,625 c 136,-65 150,-66 84,-7 -180,163 -216,365 -103,569 34,61 128,173 145,173 5,0 9,-26 9,-58 0,-72 24,-120 76,-149 74,-43 160,-20 201,52 42,75 25,152 -60,263 -96,124 -124,220 -94,323 16,52 64,139 78,139 4,0 10,-20 13,-44 14,-88 85,-166 266,-287 258,-174 338,-256 411,-419 21,-48 24,-69 24,-175 0,-114 -2,-123 -32,-187 -35,-74 -132,-179 -196,-213 -97,-51 16,-24 121,29 197,100 357,264 429,438 70,171 71,389 2,558 -65,158 -182,296 -339,402 l -75,50 -6,-41 c -7,-50 -33,-88 -79,-112 -108,-58 -226,27 -237,173 -4,50 2,91 28,198 66,268 33,426 -128,616 -58,69 -79,80 -69,38 z"
               id="node1-7"
               class="node"
               inkscape:connector-curvature="0"
               style="fill:#ececec" />
            <path
               d="m 555,321 c -6,-39 -7,-40 -53,-43 -40,-3 -49,-8 -69,-37 -30,-45 -31,-113 -2,-142 18,-18 28,-20 78,-14 31,4 57,8 58,9 2,2 27,153 37,224 6,39 5,42 -18,42 -20,0 -25,-6 -31,-39 z m -31,-77 c 17,-6 20,-48 7,-94 -5,-19 -13,-25 -36,-25 -27,0 -30,3 -33,38 -2,23 3,48 13,63 16,25 23,28 49,18 z"
               id="node2"
               class="node"
               inkscape:connector-curvature="0"
               style="fill:#ececec" />
            <path
               d="m 1367,341 c -6,-25 0,-31 30,-31 18,0 23,5 23,25 0,20 -5,25 -24,25 -15,0 -26,-7 -29,-19 z"
               id="node3"
               class="node"
               inkscape:connector-curvature="0"
               style="fill:#ececec" />
            <path
               d="M 69,335 C 34,316 6,249 6,183 5,135 9,125 33,104 63,78 102,74 146,90 c 25,10 53,36 54,51 1,18 -35,18 -55,-1 -51,-48 -100,-7 -89,74 12,83 65,118 109,70 26,-28 55,-27 55,1 0,9 -11,27 -25,40 -28,29 -84,33 -126,10 z"
               id="node4-3"
               class="node"
               inkscape:connector-curvature="0"
               style="fill:#ececec" />
            <path
               d="m 1480,331 c -5,-11 -10,-26 -10,-34 0,-8 -7,-17 -15,-21 -17,-6 -21,-36 -4,-36 8,0 9,-21 4,-70 -7,-68 -6,-70 19,-81 17,-8 36,-9 58,-3 42,12 44,39 3,39 -32,0 -31,-3 -27,79 2,31 5,35 34,38 46,4 53,38 8,38 -31,0 -32,1 -26,35 6,31 4,35 -13,35 -11,0 -25,-9 -31,-19 z"
               id="node5"
               class="node"
               inkscape:connector-curvature="0"
               style="fill:#ececec" />
            <path
               d="m 820,326 c 0,-8 5,-16 12,-18 16,-6 -10,-178 -29,-185 -7,-3 -13,-11 -13,-19 0,-10 14,-14 50,-14 47,0 63,11 39,26 -19,11 7,194 27,194 8,0 14,7 14,15 0,11 -12,15 -50,15 -36,0 -50,-4 -50,-14 z"
               id="node6-5"
               class="node"
               inkscape:connector-curvature="0"
               style="fill:#ececec" />
            <path
               d="m 294,282 c -39,-6 -67,-47 -72,-106 -4,-45 -1,-57 17,-75 23,-23 66,-27 105,-10 47,22 73,122 44,162 -15,19 -63,34 -94,29 z m 54,-80 c 4,-44 -22,-84 -51,-80 -17,2 -23,11 -25,40 -4,52 13,80 46,76 22,-2 28,-9 30,-36 z"
               id="node7"
               class="node"
               inkscape:connector-curvature="0"
               style="fill:#ececec" />
            <path
               d="m 1106,283 c -4,-4 -34,-6 -67,-5 -52,2 -62,-1 -85,-23 -20,-20 -25,-33 -21,-58 2,-17 0,-41 -6,-52 -6,-11 -14,-28 -19,-37 -17,-35 -9,-77 17,-94 36,-24 122,-15 147,16 40,49 20,77 -72,96 l -35,8 50,7 c 53,8 72,26 82,71 3,15 11,29 19,32 15,6 19,32 5,40 -4,3 -11,2 -15,-1 z m -56,-63 c 0,-23 -24,-43 -47,-38 -23,4 -28,32 -9,51 20,19 56,11 56,-13 z M 1037,73 c 7,-18 -14,-33 -47,-33 -34,0 -52,18 -40,40 11,20 79,15 87,-7 z"
               id="node8"
               class="node"
               inkscape:connector-curvature="0"
               style="fill:#ececec" />
            <path
               d="m 652,274 c -21,-9 -44,-64 -45,-111 -2,-36 3,-48 22,-64 33,-27 84,-24 118,5 26,23 27,25 9,32 -10,4 -27,2 -37,-4 -26,-17 -56,-15 -63,4 -10,27 3,34 64,34 56,0 60,2 66,26 11,43 -23,79 -77,81 -24,1 -50,-1 -57,-3 z m 81,-48 c 8,-19 -1,-26 -33,-26 -32,0 -41,7 -33,26 7,18 59,18 66,0 z"
               id="node9"
               class="node"
               inkscape:connector-curvature="0"
               style="fill:#ececec" />
            <path
               d="m 1145,265 c -8,-28 -25,-131 -25,-152 0,-20 5,-24 23,-21 19,3 24,12 32,63 12,74 19,85 52,85 l 25,0 -7,-75 c -6,-70 -6,-75 13,-75 24,0 30,13 38,95 9,86 1,95 -83,93 -36,-2 -67,-7 -68,-13 z"
               id="node10"
               class="node"
               inkscape:connector-curvature="0"
               style="fill:#ececec" />
            <path
               d="m 1333,264 c -3,-10 0,-20 9,-25 12,-7 13,-18 7,-56 -12,-74 -11,-83 16,-95 35,-16 54,2 37,34 -9,17 -10,37 -2,77 5,29 10,60 10,67 0,21 -69,18 -77,-2 z"
               id="node11"
               class="node"
               inkscape:connector-curvature="0"
               style="fill:#ececec" />
            <path
               d="m 1623,265 c -28,-20 -47,-83 -39,-128 7,-35 36,-57 77,-57 30,0 79,28 79,45 0,17 -31,20 -47,4 -18,-18 -58,-7 -58,16 0,18 8,20 63,23 l 62,3 0,34 c 0,47 -29,75 -78,75 -21,0 -47,-7 -59,-15 z m 85,-47 c 3,-15 -4,-18 -32,-18 -34,0 -47,15 -29,34 13,13 58,1 61,-16 z"
               id="node12"
               class="node"
               inkscape:connector-curvature="0"
               style="fill:#ececec" />
            <path
               d="m 1801,266 c -4,-6 -11,-38 -15,-71 -4,-32 -9,-69 -12,-82 -5,-19 -2,-23 19,-23 23,0 26,5 32,48 10,84 17,97 53,100 24,2 32,8 32,22 0,16 -7,19 -50,18 -28,-1 -54,-6 -59,-12 z"
               id="node13"
               class="node"
               inkscape:connector-curvature="0"
               style="fill:#ececec" />
          </g>
          <g
             id="g3453"
             transform="matrix(0.1,0,0,-0.1,0,300)"
             style="fill:#ececec;stroke:none" />
        </g>
      </g>
    </g>
  </g>
</svg>
